{
  "accessors": [
    {
      "name": "Body1_1_0_positions",
      "componentType": 5126,
      "count": 4715,
      "min": [
        -0.07472199946641922,
        -0.07512199878692627,
        -0.007065999787300825
      ],
      "max": [
        0.07499600201845169,
        0.07496099919080734,
        0.020500000566244125
      ],
      "type": "VEC3",
      "bufferView": 0,
      "byteOffset": 0
    },
    {
      "name": "Body1_1_0_normals",
      "componentType": 5126,
      "count": 4715,
      "min": [
        -0.9999939203262329,
        -0.9999982118606567,
        -1
      ],
      "max": [
        0.9999995231628418,
        0.9999939203262329,
        1
      ],
      "type": "VEC3",
      "bufferView": 1,
      "byteOffset": 0
    },
    {
      "name": "Body1_1_0_texcoords",
      "componentType": 5126,
      "count": 4715,
      "min": [
        -7.512150764465332,
        -24.56250762939453
      ],
      "max": [
        7.512150764465332,
        21.84792709350586
      ],
      "type": "VEC2",
      "bufferView": 2,
      "byteOffset": 0
    },
    {
      "name": "Body1_1_0_indices",
      "componentType": 5123,
      "count": 14040,
      "min": [
        0
      ],
      "max": [
        4714
      ],
      "type": "SCALAR",
      "bufferView": 3,
      "byteOffset": 0
    },
    {
      "name": "Body1:1_1_0_positions",
      "componentType": 5126,
      "count": 1296,
      "min": [
        -0.06032500043511391,
        -0.060309998691082,
        -0.01269999984651804
      ],
      "max": [
        0.06032500043511391,
        0.06032500043511391,
        0.045253999531269073
      ],
      "type": "VEC3",
      "bufferView": 0,
      "byteOffset": 56580
    },
    {
      "name": "Body1:1_1_0_normals",
      "componentType": 5126,
      "count": 1296,
      "min": [
        -1,
        -0.9999397397041321,
        -1
      ],
      "max": [
        0.9999619126319885,
        0.9983081817626953,
        1
      ],
      "type": "VEC3",
      "bufferView": 1,
      "byteOffset": 56580
    },
    {
      "name": "Body1:1_1_0_texcoords",
      "componentType": 5126,
      "count": 1296,
      "min": [
        -13.650581359863281,
        -14.302666664123535
      ],
      "max": [
        6.032473087310791,
        9.287010192871094
      ],
      "type": "VEC2",
      "bufferView": 2,
      "byteOffset": 37720
    },
    {
      "name": "Body1:1_1_0_indices",
      "componentType": 5123,
      "count": 4467,
      "min": [
        0
      ],
      "max": [
        1295
      ],
      "type": "SCALAR",
      "bufferView": 3,
      "byteOffset": 28080
    },
    {
      "name": "Body1:1_1_1_positions",
      "componentType": 5126,
      "count": 6691,
      "min": [
        -0.06032500043511391,
        -0.060309998691082,
        -0.01269999984651804
      ],
      "max": [
        0.06032500043511391,
        0.06032700091600418,
        0.045253999531269073
      ],
      "type": "VEC3",
      "bufferView": 0,
      "byteOffset": 72132
    },
    {
      "name": "Body1:1_1_1_normals",
      "componentType": 5126,
      "count": 6691,
      "min": [
        -1,
        -0.999996542930603,
        -1
      ],
      "max": [
        0.9999954700469971,
        0.999996542930603,
        1
      ],
      "type": "VEC3",
      "bufferView": 1,
      "byteOffset": 72132
    },
    {
      "name": "Body1:1_1_1_texcoords",
      "componentType": 5126,
      "count": 6691,
      "min": [
        -15.086684226989746,
        -21.84830093383789
      ],
      "max": [
        21.63249969482422,
        19.951658248901367
      ],
      "type": "VEC2",
      "bufferView": 2,
      "byteOffset": 48088
    },
    {
      "name": "Body1:1_1_1_indices",
      "componentType": 5123,
      "count": 25293,
      "min": [
        0
      ],
      "max": [
        6690
      ],
      "type": "SCALAR",
      "bufferView": 3,
      "byteOffset": 37016
    },
    {
      "name": "Body1:2_1_0_positions",
      "componentType": 5126,
      "count": 2728,
      "min": [
        -0.054999999701976776,
        -0.054997000843286514,
        0.037105001509189606
      ],
      "max": [
        0.054999999701976776,
        0.05500299856066704,
        0.04210500046610832
      ],
      "type": "VEC3",
      "bufferView": 0,
      "byteOffset": 152424
    },
    {
      "name": "Body1:2_1_0_normals",
      "componentType": 5126,
      "count": 2728,
      "min": [
        -1,
        -1,
        -1
      ],
      "max": [
        1,
        1,
        1
      ],
      "type": "VEC3",
      "bufferView": 1,
      "byteOffset": 152424
    },
    {
      "name": "Body1:2_1_0_texcoords",
      "componentType": 5126,
      "count": 2728,
      "min": [
        -5.5,
        -16.27876091003418
      ],
      "max": [
        5.5,
        18.27876091003418
      ],
      "type": "VEC2",
      "bufferView": 2,
      "byteOffset": 101616
    },
    {
      "name": "Body1:2_1_0_indices",
      "componentType": 5123,
      "count": 8292,
      "min": [
        0
      ],
      "max": [
        2727
      ],
      "type": "SCALAR",
      "bufferView": 3,
      "byteOffset": 87604
    },
    {
      "name": "Body1:3_1_0_positions",
      "componentType": 5126,
      "count": 2652,
      "min": [
        -0.054999999701976776,
        -0.054999999701976776,
        0
      ],
      "max": [
        0.054999999701976776,
        0.054999999701976776,
        0.00317499996162951
      ],
      "type": "VEC3",
      "bufferView": 0,
      "byteOffset": 185160
    },
    {
      "name": "Body1:3_1_0_normals",
      "componentType": 5126,
      "count": 2652,
      "min": [
        -1,
        -1,
        -1
      ],
      "max": [
        1,
        1,
        1
      ],
      "type": "VEC3",
      "bufferView": 1,
      "byteOffset": 185160
    },
    {
      "name": "Body1:3_1_0_texcoords",
      "componentType": 5126,
      "count": 2652,
      "min": [
        -5.5,
        -16.27876091003418
      ],
      "max": [
        5.5,
        18.27876091003418
      ],
      "type": "VEC2",
      "bufferView": 2,
      "byteOffset": 123440
    },
    {
      "name": "Body1:3_1_0_indices",
      "componentType": 5123,
      "count": 8064,
      "min": [
        0
      ],
      "max": [
        2651
      ],
      "type": "SCALAR",
      "bufferView": 3,
      "byteOffset": 104188
    },
    {
      "name": "Body2_1_0_positions",
      "componentType": 5126,
      "count": 1572,
      "min": [
        -0.02539999969303608,
        -0.025394000113010406,
        0.00317499996162951
      ],
      "max": [
        0.02539999969303608,
        0.025394000113010406,
        0.11239500343799591
      ],
      "type": "VEC3",
      "bufferView": 0,
      "byteOffset": 216984
    },
    {
      "name": "Body2_1_0_normals",
      "componentType": 5126,
      "count": 1572,
      "min": [
        -1,
        -1,
        -1
      ],
      "max": [
        1,
        1,
        1
      ],
      "type": "VEC3",
      "bufferView": 1,
      "byteOffset": 216984
    },
    {
      "name": "Body2_1_0_texcoords",
      "componentType": 5126,
      "count": 1572,
      "min": [
        -10.92199993133545,
        -6.979644775390625
      ],
      "max": [
        10.92199993133545,
        8.979644775390625
      ],
      "type": "VEC2",
      "bufferView": 2,
      "byteOffset": 144656
    },
    {
      "name": "Body2_1_0_indices",
      "componentType": 5123,
      "count": 5064,
      "min": [
        0
      ],
      "max": [
        1571
      ],
      "type": "SCALAR",
      "bufferView": 3,
      "byteOffset": 120316
    },
    {
      "name": "Body4_1_0_positions",
      "componentType": 5126,
      "count": 1040,
      "min": [
        -0.03905000165104866,
        -0.02539999969303608,
        0.11239500343799591
      ],
      "max": [
        0.03905000165104866,
        0.02539999969303608,
        0.11557000130414963
      ],
      "type": "VEC3",
      "bufferView": 0,
      "byteOffset": 235848
    },
    {
      "name": "Body4_1_0_normals",
      "componentType": 5126,
      "count": 1040,
      "min": [
        -1,
        -1,
        -1
      ],
      "max": [
        1,
        1,
        1
      ],
      "type": "VEC3",
      "bufferView": 1,
      "byteOffset": 235848
    },
    {
      "name": "Body4_1_0_texcoords",
      "componentType": 5126,
      "count": 1040,
      "min": [
        -5.537199974060059,
        -1.5399999618530273
      ],
      "max": [
        3.905010938644409,
        7.3730387687683105
      ],
      "type": "VEC2",
      "bufferView": 2,
      "byteOffset": 157232
    },
    {
      "name": "Body4_1_0_indices",
      "componentType": 5123,
      "count": 3120,
      "min": [
        0
      ],
      "max": [
        1039
      ],
      "type": "SCALAR",
      "bufferView": 3,
      "byteOffset": 130444
    }
  ],
  "asset": {
    "generator": "obj2gltf",
    "version": "2.0"
  },
  "buffers": [
    {
      "name": "bucket",
      "byteLength": 798892,
      "uri": "data:application/octet-stream;base64,"
    }
  ],
  "bufferViews": [
    {
      "name": "bufferView_0",
      "buffer": 0,
      "byteLength": 248328,
      "byteOffset": 0,
      "byteStride": 12,
      "target": 34962
    },
    {
      "name": "bufferView_1",
      "buffer": 0,
      "byteLength": 248328,
      "byteOffset": 248328,
      "byteStride": 12,
      "target": 34962
    },
    {
      "name": "bufferView_2",
      "buffer": 0,
      "byteLength": 165552,
      "byteOffset": 496656,
      "byteStride": 8,
      "target": 34962
    },
    {
      "name": "bufferView_3",
      "buffer": 0,
      "byteLength": 136684,
      "byteOffset": 662208,
      "target": 34963
    }
  ],
  "materials": [
    {
      "name": "Aluminum_-_Anodized_Glossy_(Blue)",
      "pbrMetallicRoughness": {
        "baseColorFactor": [
          0.34902,
          0.584314,
          0.854902,
          1
        ],
        "metallicFactor": 0,
        "roughnessFactor": 1
      },
      "emissiveFactor": [
        0,
        0,
        0
      ],
      "alphaMode": "OPAQUE",
      "doubleSided": false
    },
    {
      "name": "Aluminum_-_Bead_Blasted",
      "pbrMetallicRoughness": {
        "baseColorFactor": [
          0.960784,
          0.960784,
          0.964706,
          1
        ],
        "metallicFactor": 0,
        "roughnessFactor": 1
      },
      "emissiveFactor": [
        0,
        0,
        0
      ],
      "alphaMode": "OPAQUE",
      "doubleSided": false
    },
    {
      "name": "Opaque(221,232,255)",
      "pbrMetallicRoughness": {
        "baseColorFactor": [
          0.866667,
          0.909804,
          1,
          1
        ],
        "metallicFactor": 0,
        "roughnessFactor": 1
      },
      "emissiveFactor": [
        0,
        0,
        0
      ],
      "alphaMode": "OPAQUE",
      "doubleSided": false
    },
    {
      "name": "Steel_-_Satin",
      "pbrMetallicRoughness": {
        "baseColorFactor": [
          0.627451,
          0.627451,
          0.627451,
          1
        ],
        "metallicFactor": 0,
        "roughnessFactor": 1
      },
      "emissiveFactor": [
        0,
        0,
        0
      ],
      "alphaMode": "OPAQUE",
      "doubleSided": false
    }
  ],
  "meshes": [
    {
      "name": "Body1_1",
      "primitives": [
        {
          "attributes": {
            "POSITION": 0,
            "NORMAL": 1,
            "TEXCOORD_0": 2
          },
          "indices": 3,
          "material": 0,
          "mode": 4
        }
      ]
    },
    {
      "name": "Body1:1_1",
      "primitives": [
        {
          "attributes": {
            "POSITION": 4,
            "NORMAL": 5,
            "TEXCOORD_0": 6
          },
          "indices": 7,
          "material": 1,
          "mode": 4
        },
        {
          "attributes": {
            "POSITION": 8,
            "NORMAL": 9,
            "TEXCOORD_0": 10
          },
          "indices": 11,
          "material": 2,
          "mode": 4
        }
      ]
    },
    {
      "name": "Body1:2_1",
      "primitives": [
        {
          "attributes": {
            "POSITION": 12,
            "NORMAL": 13,
            "TEXCOORD_0": 14
          },
          "indices": 15,
          "material": 3,
          "mode": 4
        }
      ]
    },
    {
      "name": "Body1:3_1",
      "primitives": [
        {
          "attributes": {
            "POSITION": 16,
            "NORMAL": 17,
            "TEXCOORD_0": 18
          },
          "indices": 19,
          "material": 3,
          "mode": 4
        }
      ]
    },
    {
      "name": "Body2_1",
      "primitives": [
        {
          "attributes": {
            "POSITION": 20,
            "NORMAL": 21,
            "TEXCOORD_0": 22
          },
          "indices": 23,
          "material": 3,
          "mode": 4
        }
      ]
    },
    {
      "name": "Body4_1",
      "primitives": [
        {
          "attributes": {
            "POSITION": 24,
            "NORMAL": 25,
            "TEXCOORD_0": 26
          },
          "indices": 27,
          "material": 3,
          "mode": 4
        }
      ]
    }
  ],
  "nodes": [
    {
      "name": "Body1",
      "mesh": 0
    },
    {
      "name": "Body1:1",
      "mesh": 1
    },
    {
      "name": "Body1:2",
      "mesh": 2
    },
    {
      "name": "Body1:3",
      "mesh": 3
    },
    {
      "name": "Body2",
      "mesh": 4
    },
    {
      "name": "Body4",
      "mesh": 5
    }
  ],
  "scene": 0,
  "scenes": [
    {
      "nodes": [
        0,
        1,
        2,
        3,
        4,
        5
      ]
    }
  ]
}
