{
  "accessors": [
    {
      "name": "Body1_1_0_positions",
      "componentType": 5126,
      "count": 238,
      "min": [
        -0.11108600348234177,
        -0.1208610013127327,
        -0.03339400142431259
      ],
      "max": [
        0.11108600348234177,
        0.10123100131750107,
        -0.020694000646471977
      ],
      "type": "VEC3",
      "bufferView": 0,
      "byteOffset": 0
    },
    {
      "name": "Body1_1_0_normals",
      "componentType": 5126,
      "count": 238,
      "min": [
        -0.9996455907821655,
        -0.9985827207565308,
        -1
      ],
      "max": [
        0.9996455907821655,
        1,
        1
      ],
      "type": "VEC3",
      "bufferView": 1,
      "byteOffset": 0
    },
    {
      "name": "Body1_1_0_texcoords",
      "componentType": 5126,
      "count": 238,
      "min": [
        -11.108562469482422,
        -33.91094970703125
      ],
      "max": [
        11.108562469482422,
        35.91094970703125
      ],
      "type": "VEC2",
      "bufferView": 2,
      "byteOffset": 0
    },
    {
      "name": "Body1_1_0_indices",
      "componentType": 5123,
      "count": 696,
      "min": [
        0
      ],
      "max": [
        237
      ],
      "type": "SCALAR",
      "bufferView": 3,
      "byteOffset": 0
    },
    {
      "name": "Body1:1_1_0_positions",
      "componentType": 5126,
      "count": 1414,
      "min": [
        -0.11108600348234177,
        -0.1208610013127327,
        -0.020694000646471977
      ],
      "max": [
        0.11108600348234177,
        0.10123100131750107,
        -0.01751900091767311
      ],
      "type": "VEC3",
      "bufferView": 0,
      "byteOffset": 2856
    },
    {
      "name": "Body1:1_1_0_normals",
      "componentType": 5126,
      "count": 1414,
      "min": [
        -1,
        -1,
        -1
      ],
      "max": [
        1,
        1,
        1
      ],
      "type": "VEC3",
      "bufferView": 1,
      "byteOffset": 2856
    },
    {
      "name": "Body1:1_1_0_texcoords",
      "componentType": 5126,
      "count": 1414,
      "min": [
        -11.108562469482422,
        -33.91094970703125
      ],
      "max": [
        11.108562469482422,
        35.91094970703125
      ],
      "type": "VEC2",
      "bufferView": 2,
      "byteOffset": 1904
    },
    {
      "name": "Body1:1_1_0_indices",
      "componentType": 5123,
      "count": 4296,
      "min": [
        0
      ],
      "max": [
        1413
      ],
      "type": "SCALAR",
      "bufferView": 3,
      "byteOffset": 1392
    },
    {
      "name": "Body1:2_1_0_positions",
      "componentType": 5126,
      "count": 3008,
      "min": [
        -0.06032500043511391,
        -0.0702190026640892,
        -0.01751900091767311
      ],
      "max": [
        0.06032500043511391,
        0.05043099820613861,
        0.024181000888347626
      ],
      "type": "VEC3",
      "bufferView": 0,
      "byteOffset": 19824
    },
    {
      "name": "Body1:2_1_0_normals",
      "componentType": 5126,
      "count": 3008,
      "min": [
        -1,
        -1,
        -1
      ],
      "max": [
        1,
        1,
        1
      ],
      "type": "VEC3",
      "bufferView": 1,
      "byteOffset": 19824
    },
    {
      "name": "Body1:2_1_0_texcoords",
      "componentType": 5126,
      "count": 3008,
      "min": [
        -13.650581359863281,
        -18.614002227783203
      ],
      "max": [
        21.63249969482422,
        19.799484252929688
      ],
      "type": "VEC2",
      "bufferView": 2,
      "byteOffset": 13216
    },
    {
      "name": "Body1:2_1_0_indices",
      "componentType": 5123,
      "count": 9300,
      "min": [
        0
      ],
      "max": [
        3007
      ],
      "type": "SCALAR",
      "bufferView": 3,
      "byteOffset": 9984
    },
    {
      "name": "Body1:2_1_1_positions",
      "componentType": 5126,
      "count": 1500,
      "min": [
        -0.03784099966287613,
        -0.04773499816656113,
        -0.01751900091767311
      ],
      "max": [
        0.03784099966287613,
        0.02794799953699112,
        0.011481000110507011
      ],
      "type": "VEC3",
      "bufferView": 0,
      "byteOffset": 55920
    },
    {
      "name": "Body1:2_1_1_normals",
      "componentType": 5126,
      "count": 1500,
      "min": [
        -1,
        -1,
        0
      ],
      "max": [
        1,
        1,
        0
      ],
      "type": "VEC3",
      "bufferView": 1,
      "byteOffset": 55920
    },
    {
      "name": "Body1:2_1_1_texcoords",
      "componentType": 5126,
      "count": 1500,
      "min": [
        -2.9000000953674316,
        0.48163700103759766
      ],
      "max": [
        0,
        1.5183629989624023
      ],
      "type": "VEC2",
      "bufferView": 2,
      "byteOffset": 37280
    },
    {
      "name": "Body1:2_1_1_indices",
      "componentType": 5123,
      "count": 6912,
      "min": [
        0
      ],
      "max": [
        1499
      ],
      "type": "SCALAR",
      "bufferView": 3,
      "byteOffset": 28584
    }
  ],
  "asset": {
    "generator": "obj2gltf",
    "version": "2.0"
  },
  "buffers": [
    {
      "name": "foot",
      "byteLength": 239528,
      "uri": "data:application/octet-stream;base64,"
    }
  ],
  "bufferViews": [
    {
      "name": "bufferView_0",
      "buffer": 0,
      "byteLength": 73920,
      "byteOffset": 0,
      "byteStride": 12,
      "target": 34962
    },
    {
      "name": "bufferView_1",
      "buffer": 0,
      "byteLength": 73920,
      "byteOffset": 73920,
      "byteStride": 12,
      "target": 34962
    },
    {
      "name": "bufferView_2",
      "buffer": 0,
      "byteLength": 49280,
      "byteOffset": 147840,
      "byteStride": 8,
      "target": 34962
    },
    {
      "name": "bufferView_3",
      "buffer": 0,
      "byteLength": 42408,
      "byteOffset": 197120,
      "target": 34963
    }
  ],
  "materials": [
    {
      "name": "Opaque(28,27,27)",
      "pbrMetallicRoughness": {
        "baseColorFactor": [
          0.109804,
          0.105882,
          0.105882,
          1
        ],
        "metallicFactor": 0,
        "roughnessFactor": 1
      },
      "emissiveFactor": [
        0,
        0,
        0
      ],
      "alphaMode": "OPAQUE",
      "doubleSided": false
    },
    {
      "name": "Opaque(165,165,165)",
      "pbrMetallicRoughness": {
        "baseColorFactor": [
          0.647059,
          0.647059,
          0.647059,
          1
        ],
        "metallicFactor": 0,
        "roughnessFactor": 1
      },
      "emissiveFactor": [
        0,
        0,
        0
      ],
      "alphaMode": "OPAQUE",
      "doubleSided": false
    },
    {
      "name": "Opaque(221,232,255)",
      "pbrMetallicRoughness": {
        "baseColorFactor": [
          0.866667,
          0.909804,
          1,
          1
        ],
        "metallicFactor": 0,
        "roughnessFactor": 1
      },
      "emissiveFactor": [
        0,
        0,
        0
      ],
      "alphaMode": "OPAQUE",
      "doubleSided": false
    },
    {
      "name": "Opaque(229,234,237)",
      "pbrMetallicRoughness": {
        "baseColorFactor": [
          0.898039,
          0.917647,
          0.929412,
          1
        ],
        "metallicFactor": 0,
        "roughnessFactor": 1
      },
      "emissiveFactor": [
        0,
        0,
        0
      ],
      "alphaMode": "OPAQUE",
      "doubleSided": false
    }
  ],
  "meshes": [
    {
      "name": "Body1_1",
      "primitives": [
        {
          "attributes": {
            "POSITION": 0,
            "NORMAL": 1,
            "TEXCOORD_0": 2
          },
          "indices": 3,
          "material": 0,
          "mode": 4
        }
      ]
    },
    {
      "name": "Body1:1_1",
      "primitives": [
        {
          "attributes": {
            "POSITION": 4,
            "NORMAL": 5,
            "TEXCOORD_0": 6
          },
          "indices": 7,
          "material": 1,
          "mode": 4
        }
      ]
    },
    {
      "name": "Body1:2_1",
      "primitives": [
        {
          "attributes": {
            "POSITION": 8,
            "NORMAL": 9,
            "TEXCOORD_0": 10
          },
          "indices": 11,
          "material": 2,
          "mode": 4
        },
        {
          "attributes": {
            "POSITION": 12,
            "NORMAL": 13,
            "TEXCOORD_0": 14
          },
          "indices": 15,
          "material": 3,
          "mode": 4
        }
      ]
    }
  ],
  "nodes": [
    {
      "name": "Body1",
      "mesh": 0
    },
    {
      "name": "Body1:1",
      "mesh": 1
    },
    {
      "name": "Body1:2",
      "mesh": 2
    }
  ],
  "scene": 0,
  "scenes": [
    {
      "nodes": [
        0,
        1,
        2
      ]
    }
  ]
}
