{
  "accessors": [
    {
      "name": "Body1_1_0_positions",
      "componentType": 5126,
      "count": 6455,
      "min": [
        -0.07476100325584412,
        -0.074863001704216,
        -0.00006600000051548705
      ],
      "max": [
        0.0749569982290268,
        0.07521799951791763,
        0.030108999460935593
      ],
      "type": "VEC3",
      "bufferView": 0,
      "byteOffset": 0
    },
    {
      "name": "Body1_1_0_normals",
      "componentType": 5126,
      "count": 6455,
      "min": [
        -0.9999870657920837,
        -0.9999989867210388,
        -1
      ],
      "max": [
        0.9999997615814209,
        0.9999964237213135,
        1
      ],
      "type": "VEC3",
      "bufferView": 1,
      "byteOffset": 0
    },
    {
      "name": "Body1_1_0_texcoords",
      "componentType": 5126,
      "count": 6455,
      "min": [
        -7.512150764465332,
        -24.56250762939453
      ],
      "max": [
        7.512150764465332,
        21.84792709350586
      ],
      "type": "VEC2",
      "bufferView": 2,
      "byteOffset": 0
    },
    {
      "name": "Body1_1_0_indices",
      "componentType": 5123,
      "count": 18804,
      "min": [
        0
      ],
      "max": [
        6454
      ],
      "type": "SCALAR",
      "bufferView": 3,
      "byteOffset": 0
    },
    {
      "name": "Body1:1_1_0_positions",
      "componentType": 5126,
      "count": 1722,
      "min": [
        -0.04228200018405914,
        -0.04227599874138832,
        -0.017000000923871994
      ],
      "max": [
        0.04225900024175644,
        0.04227599874138832,
        -0.014999999664723873
      ],
      "type": "VEC3",
      "bufferView": 0,
      "byteOffset": 77460
    },
    {
      "name": "Body1:1_1_0_normals",
      "componentType": 5126,
      "count": 1722,
      "min": [
        -1,
        -1,
        -1
      ],
      "max": [
        1,
        1,
        1
      ],
      "type": "VEC3",
      "bufferView": 1,
      "byteOffset": 77460
    },
    {
      "name": "Body1:1_1_0_texcoords",
      "componentType": 5126,
      "count": 1722,
      "min": [
        -4.22820520401001,
        -12.283296585083008
      ],
      "max": [
        4.22820520401001,
        14.283296585083008
      ],
      "type": "VEC2",
      "bufferView": 2,
      "byteOffset": 51640
    },
    {
      "name": "Body1:1_1_0_indices",
      "componentType": 5123,
      "count": 6552,
      "min": [
        0
      ],
      "max": [
        1721
      ],
      "type": "SCALAR",
      "bufferView": 3,
      "byteOffset": 37608
    },
    {
      "name": "Body1:2_1_0_positions",
      "componentType": 5126,
      "count": 425,
      "min": [
        -0.001993000041693449,
        0.03441699966788292,
        -0.017820000648498535
      ],
      "max": [
        0.0030070000793784857,
        0.039416998624801636,
        0.032180000096559525
      ],
      "type": "VEC3",
      "bufferView": 0,
      "byteOffset": 98124
    },
    {
      "name": "Body1:2_1_0_normals",
      "componentType": 5126,
      "count": 425,
      "min": [
        -1,
        -1,
        -1
      ],
      "max": [
        1,
        1,
        1
      ],
      "type": "VEC3",
      "bufferView": 1,
      "byteOffset": 98124
    },
    {
      "name": "Body1:2_1_0_texcoords",
      "componentType": 5126,
      "count": 425,
      "min": [
        -0.6566529870033264,
        0.21460199356079102
      ],
      "max": [
        4.925000190734863,
        1.785398006439209
      ],
      "type": "VEC2",
      "bufferView": 2,
      "byteOffset": 65416
    },
    {
      "name": "Body1:2_1_0_indices",
      "componentType": 5123,
      "count": 1584,
      "min": [
        0
      ],
      "max": [
        424
      ],
      "type": "SCALAR",
      "bufferView": 3,
      "byteOffset": 50712
    },
    {
      "name": "Body1:3_1_0_positions",
      "componentType": 5126,
      "count": 425,
      "min": [
        -0.037450000643730164,
        0.00939400028437376,
        -0.017820000648498535
      ],
      "max": [
        -0.03245700150728226,
        0.014387000352144241,
        0.032180000096559525
      ],
      "type": "VEC3",
      "bufferView": 0,
      "byteOffset": 103224
    },
    {
      "name": "Body1:3_1_0_normals",
      "componentType": 5126,
      "count": 425,
      "min": [
        -0.9986295104026794,
        -0.9986295104026794,
        -1
      ],
      "max": [
        0.9986295104026794,
        0.9986295104026794,
        1
      ],
      "type": "VEC3",
      "bufferView": 1,
      "byteOffset": 103224
    },
    {
      "name": "Body1:3_1_0_texcoords",
      "componentType": 5126,
      "count": 425,
      "min": [
        -0.6566529870033264,
        0.21460199356079102
      ],
      "max": [
        4.925000190734863,
        1.785398006439209
      ],
      "type": "VEC2",
      "bufferView": 2,
      "byteOffset": 68816
    },
    {
      "name": "Body1:3_1_0_indices",
      "componentType": 5123,
      "count": 1584,
      "min": [
        0
      ],
      "max": [
        424
      ],
      "type": "SCALAR",
      "bufferView": 3,
      "byteOffset": 53880
    },
    {
      "name": "Body1:4_1_0_positions",
      "componentType": 5126,
      "count": 425,
      "min": [
        -0.024596000090241432,
        -0.032055001705884933,
        -0.017820000648498535
      ],
      "max": [
        -0.01962300017476082,
        -0.02708199992775917,
        0.032180000096559525
      ],
      "type": "VEC3",
      "bufferView": 0,
      "byteOffset": 108324
    },
    {
      "name": "Body1:4_1_0_normals",
      "componentType": 5126,
      "count": 425,
      "min": [
        -0.9945219159126282,
        -0.9945219159126282,
        -1
      ],
      "max": [
        0.9945219159126282,
        0.9945219159126282,
        1
      ],
      "type": "VEC3",
      "bufferView": 1,
      "byteOffset": 108324
    },
    {
      "name": "Body1:4_1_0_texcoords",
      "componentType": 5126,
      "count": 425,
      "min": [
        -0.6566529870033264,
        0.21460199356079102
      ],
      "max": [
        4.925000190734863,
        1.785398006439209
      ],
      "type": "VEC2",
      "bufferView": 2,
      "byteOffset": 72216
    },
    {
      "name": "Body1:4_1_0_indices",
      "componentType": 5123,
      "count": 1584,
      "min": [
        0
      ],
      "max": [
        424
      ],
      "type": "SCALAR",
      "bufferView": 3,
      "byteOffset": 57048
    },
    {
      "name": "Body1:5_1_0_positions",
      "componentType": 5126,
      "count": 425,
      "min": [
        0.018803000450134277,
        -0.03265099972486496,
        -0.017820000648498535
      ],
      "max": [
        0.02377600036561489,
        -0.027677999809384346,
        0.032180000096559525
      ],
      "type": "VEC3",
      "bufferView": 0,
      "byteOffset": 113424
    },
    {
      "name": "Body1:5_1_0_normals",
      "componentType": 5126,
      "count": 425,
      "min": [
        -0.9945219159126282,
        -0.9945219159126282,
        -1
      ],
      "max": [
        0.9945219159126282,
        0.9945219159126282,
        1
      ],
      "type": "VEC3",
      "bufferView": 1,
      "byteOffset": 113424
    },
    {
      "name": "Body1:5_1_0_texcoords",
      "componentType": 5126,
      "count": 425,
      "min": [
        -0.6566529870033264,
        0.21460199356079102
      ],
      "max": [
        4.925000190734863,
        1.785398006439209
      ],
      "type": "VEC2",
      "bufferView": 2,
      "byteOffset": 75616
    },
    {
      "name": "Body1:5_1_0_indices",
      "componentType": 5123,
      "count": 1584,
      "min": [
        0
      ],
      "max": [
        424
      ],
      "type": "SCALAR",
      "bufferView": 3,
      "byteOffset": 60216
    },
    {
      "name": "Body1:6_1_0_positions",
      "componentType": 5126,
      "count": 425,
      "min": [
        0.03277000039815903,
        0.008429000154137611,
        -0.017820000648498535
      ],
      "max": [
        0.03776400163769722,
        0.013422000221908092,
        0.032180000096559525
      ],
      "type": "VEC3",
      "bufferView": 0,
      "byteOffset": 118524
    },
    {
      "name": "Body1:6_1_0_normals",
      "componentType": 5126,
      "count": 425,
      "min": [
        -0.9986295104026794,
        -0.9986295104026794,
        -1
      ],
      "max": [
        0.9986295104026794,
        0.9986295104026794,
        1
      ],
      "type": "VEC3",
      "bufferView": 1,
      "byteOffset": 118524
    },
    {
      "name": "Body1:6_1_0_texcoords",
      "componentType": 5126,
      "count": 425,
      "min": [
        -0.6566529870033264,
        0.21460199356079102
      ],
      "max": [
        4.925000190734863,
        1.785398006439209
      ],
      "type": "VEC2",
      "bufferView": 2,
      "byteOffset": 79016
    },
    {
      "name": "Body1:6_1_0_indices",
      "componentType": 5123,
      "count": 1584,
      "min": [
        0
      ],
      "max": [
        424
      ],
      "type": "SCALAR",
      "bufferView": 3,
      "byteOffset": 63384
    },
    {
      "name": "Body15_1_0_positions",
      "componentType": 5126,
      "count": 1370,
      "min": [
        -0.06032500043511391,
        -0.060322001576423645,
        -0.02225399948656559
      ],
      "max": [
        0.06032500043511391,
        0.06031300127506256,
        0.037700001150369644
      ],
      "type": "VEC3",
      "bufferView": 0,
      "byteOffset": 123624
    },
    {
      "name": "Body15_1_0_normals",
      "componentType": 5126,
      "count": 1370,
      "min": [
        -0.9999619126319885,
        -0.9537169337272644,
        -1
      ],
      "max": [
        0.9999619126319885,
        0.9999397397041321,
        1
      ],
      "type": "VEC3",
      "bufferView": 1,
      "byteOffset": 123624
    },
    {
      "name": "Body15_1_0_texcoords",
      "componentType": 5126,
      "count": 1370,
      "min": [
        -13.650581359863281,
        -14.302666664123535
      ],
      "max": [
        6.0126447677612305,
        9.287010192871094
      ],
      "type": "VEC2",
      "bufferView": 2,
      "byteOffset": 82416
    },
    {
      "name": "Body15_1_0_indices",
      "componentType": 5123,
      "count": 4575,
      "min": [
        0
      ],
      "max": [
        1369
      ],
      "type": "SCALAR",
      "bufferView": 3,
      "byteOffset": 66552
    },
    {
      "name": "Body15_1_1_positions",
      "componentType": 5126,
      "count": 6835,
      "min": [
        -0.06032500043511391,
        -0.06032399833202362,
        -0.02225399948656559
      ],
      "max": [
        0.06032500043511391,
        0.06031300127506256,
        0.037700001150369644
      ],
      "type": "VEC3",
      "bufferView": 0,
      "byteOffset": 140064
    },
    {
      "name": "Body15_1_1_normals",
      "componentType": 5126,
      "count": 6835,
      "min": [
        -0.9999989867210388,
        -0.999996542930603,
        -1
      ],
      "max": [
        0.9999954700469971,
        0.999996542930603,
        1
      ],
      "type": "VEC3",
      "bufferView": 1,
      "byteOffset": 140064
    },
    {
      "name": "Body15_1_1_texcoords",
      "componentType": 5126,
      "count": 6835,
      "min": [
        -15.086684226989746,
        -21.84830093383789
      ],
      "max": [
        21.63249969482422,
        19.951658248901367
      ],
      "type": "VEC2",
      "bufferView": 2,
      "byteOffset": 93376
    },
    {
      "name": "Body15_1_1_indices",
      "componentType": 5123,
      "count": 25719,
      "min": [
        0
      ],
      "max": [
        6834
      ],
      "type": "SCALAR",
      "bufferView": 3,
      "byteOffset": 75704
    }
  ],
  "asset": {
    "generator": "obj2gltf",
    "version": "2.0"
  },
  "buffers": [
    {
      "name": "uib_prototype",
      "byteLength": 719368,
      "uri": "data:application/octet-stream;base64,"
    }
  ],
  "bufferViews": [
    {
      "name": "bufferView_0",
      "buffer": 0,
      "byteLength": 222084,
      "byteOffset": 0,
      "byteStride": 12,
      "target": 34962
    },
    {
      "name": "bufferView_1",
      "buffer": 0,
      "byteLength": 222084,
      "byteOffset": 222084,
      "byteStride": 12,
      "target": 34962
    },
    {
      "name": "bufferView_2",
      "buffer": 0,
      "byteLength": 148056,
      "byteOffset": 444168,
      "byteStride": 8,
      "target": 34962
    },
    {
      "name": "bufferView_3",
      "buffer": 0,
      "byteLength": 127144,
      "byteOffset": 592224,
      "target": 34963
    }
  ],
  "materials": [
    {
      "name": "Steel_-_Satin",
      "pbrMetallicRoughness": {
        "baseColorFactor": [
          0.627451,
          0.627451,
          0.627451,
          1
        ],
        "metallicFactor": 0,
        "roughnessFactor": 1
      },
      "emissiveFactor": [
        0,
        0,
        0
      ],
      "alphaMode": "OPAQUE",
      "doubleSided": false
    },
    {
      "name": "Opaque(221,232,255)",
      "pbrMetallicRoughness": {
        "baseColorFactor": [
          0.866667,
          0.909804,
          1,
          1
        ],
        "metallicFactor": 0,
        "roughnessFactor": 1
      },
      "emissiveFactor": [
        0,
        0,
        0
      ],
      "alphaMode": "OPAQUE",
      "doubleSided": false
    }
  ],
  "meshes": [
    {
      "name": "Body1_1",
      "primitives": [
        {
          "attributes": {
            "POSITION": 0,
            "NORMAL": 1,
            "TEXCOORD_0": 2
          },
          "indices": 3,
          "material": 0,
          "mode": 4
        }
      ]
    },
    {
      "name": "Body1:1_1",
      "primitives": [
        {
          "attributes": {
            "POSITION": 4,
            "NORMAL": 5,
            "TEXCOORD_0": 6
          },
          "indices": 7,
          "material": 0,
          "mode": 4
        }
      ]
    },
    {
      "name": "Body1:2_1",
      "primitives": [
        {
          "attributes": {
            "POSITION": 8,
            "NORMAL": 9,
            "TEXCOORD_0": 10
          },
          "indices": 11,
          "material": 0,
          "mode": 4
        }
      ]
    },
    {
      "name": "Body1:3_1",
      "primitives": [
        {
          "attributes": {
            "POSITION": 12,
            "NORMAL": 13,
            "TEXCOORD_0": 14
          },
          "indices": 15,
          "material": 0,
          "mode": 4
        }
      ]
    },
    {
      "name": "Body1:4_1",
      "primitives": [
        {
          "attributes": {
            "POSITION": 16,
            "NORMAL": 17,
            "TEXCOORD_0": 18
          },
          "indices": 19,
          "material": 0,
          "mode": 4
        }
      ]
    },
    {
      "name": "Body1:5_1",
      "primitives": [
        {
          "attributes": {
            "POSITION": 20,
            "NORMAL": 21,
            "TEXCOORD_0": 22
          },
          "indices": 23,
          "material": 0,
          "mode": 4
        }
      ]
    },
    {
      "name": "Body1:6_1",
      "primitives": [
        {
          "attributes": {
            "POSITION": 24,
            "NORMAL": 25,
            "TEXCOORD_0": 26
          },
          "indices": 27,
          "material": 0,
          "mode": 4
        }
      ]
    },
    {
      "name": "Body15_1",
      "primitives": [
        {
          "attributes": {
            "POSITION": 28,
            "NORMAL": 29,
            "TEXCOORD_0": 30
          },
          "indices": 31,
          "material": 0,
          "mode": 4
        },
        {
          "attributes": {
            "POSITION": 32,
            "NORMAL": 33,
            "TEXCOORD_0": 34
          },
          "indices": 35,
          "material": 1,
          "mode": 4
        }
      ]
    }
  ],
  "nodes": [
    {
      "name": "Body1",
      "mesh": 0
    },
    {
      "name": "Body1:1",
      "mesh": 1
    },
    {
      "name": "Body1:2",
      "mesh": 2
    },
    {
      "name": "Body1:3",
      "mesh": 3
    },
    {
      "name": "Body1:4",
      "mesh": 4
    },
    {
      "name": "Body1:5",
      "mesh": 5
    },
    {
      "name": "Body1:6",
      "mesh": 6
    },
    {
      "name": "Body15",
      "mesh": 7
    }
  ],
  "scene": 0,
  "scenes": [
    {
      "nodes": [
        0,
        1,
        2,
        3,
        4,
        5,
        6,
        7
      ]
    }
  ]
}
